<svg xmlns="http://www.w3.org/2000/svg" width="500" height="500" viewBox="0 0 500 500">
  <defs>
    <style>
      .cls-1 {
        fill-rule: evenodd;
      }
    </style>
  </defs>
  <path id="_" data-name="$" class="cls-1" d="M432.738,148.3a22.133,22.133,0,0,0-10.589.522q-5.606,1.567-10.589,3.134-4.365,1.566-10.588,4.177t-13.081,5.223q-6.861,2.619-13.08,5.483t-9.966,4.439q-3.738,1.566-8.721,3.916t-9.966,4.962q-6.234,3.132-11.835,5.744a43.373,43.373,0,0,0-4.671-2.611q-4.059-2.081-8.72-4.961-4.673-2.865-9.344-5.484a46.118,46.118,0,0,1-6.54-4.177q-8.1-5.214-19.309-5.223h-1.246q-14.336,1.568-21.8,7.312-6.861,6.266-7.786,12.011t-0.934,6.266a18.447,18.447,0,0,0,3.114,10.445,42.583,42.583,0,0,0,6.852,8.094,70.381,70.381,0,0,0,10.589,7.572,86.146,86.146,0,0,1-8.72,4.439q-6.234,2.877-12.458,6.006t-16.195,8.355a38.236,38.236,0,0,0-4.048-2.35q-3.432-1.822-7.475-4.177-4.059-2.351-8.1-4.7a44.334,44.334,0,0,1-5.918-3.917q-7.475-4.7-19.309-4.7h-1.246q-12.467,1.053-21.178,7.311-9.342,7.32-8.72,16.189a30.235,30.235,0,0,0,4.36,13.839q3.738,6.009,11.835,11.75-15.577,7.318-27.095,12.794-11.533,5.484-20.244,9.139-8.73,3.66-14.949,5.745T104.481,294q-9.343,2.619-10.589,2.611a22.378,22.378,0,0,1-6.852,0,55.1,55.1,0,0,1-5.917-2.35,17.416,17.416,0,0,1-5.294-3.917,11.278,11.278,0,0,0-3.737-3.655q-4.978-4.175-13.7-4.178a17.313,17.313,0,0,0-9.032,1.306,27.262,27.262,0,0,0-5.294,2.872,27.737,27.737,0,0,0-9.032,11.228q-2.8,6.536-2.8,10.705,0,8.874,2.8,14.883a37.108,37.108,0,0,0,6.229,9.662,36.214,36.214,0,0,0,6.229,5.483c1.869,1.216,3.017,2,3.426,2.35a63.687,63.687,0,0,0,12.769,4.7,35.664,35.664,0,0,0,14.638,1.044q8.088-1.052,22.112-5.483t22.113-7.572q26.16-10.967,51.076-22.717t50.453-23.761a125.042,125.042,0,0,0,13.392,7.05q8.409,3.916,17.752,7.572A194.653,194.653,0,0,0,273.9,308.1a60.122,60.122,0,0,0,15.572,2.611,45.579,45.579,0,0,0,18.375-3.655A23.578,23.578,0,0,0,320,296.089q4.978-10.44-1.868-19.322c-2.492-2.783-4.575-4.521-6.229-5.223q-7.475-4.7-24.915-12.011l-3.115-1.044q1.869-1.041,7.163-3.656t11.212-5.744q5.913-3.133,11.212-5.745t7.786-4.177q1.24,0.526,8.72,4.177t11.212,5.223q3.109,1.566,6.54,3.133a48.184,48.184,0,0,0,7.163,2.611,113.964,113.964,0,0,0,13.081,4.7q12.453,2.619,22.112.522,9.649-2.081,14.638-4.7t8.1-8.877a18.54,18.54,0,0,0,2.18-9.923,17.5,17.5,0,0,0-4.048-9.922,20.834,20.834,0,0,0-2.8-2.872q-1.563-1.3-2.8-2.35-4.365-2.081-9.966-4.961-5.607-2.865-14.327-6.528,23.665-12.007,37.685-16.189t19-6.789q1.869-1.039,3.738-2.089a19.92,19.92,0,0,0,3.114-2.089q6.847-5.214,7.786-12.533a16.056,16.056,0,0,0-4.049-13.055q-4.992-6.267-15.572-8.356h0Z"/>
</svg>
